<?xml version="1.0" encoding="UTF-8"?>
<svg version="1.1" xmlns="http://www.w3.org/2000/svg" width="600" height="600">
<path d="M0 0 C0 14.52 0 29.04 0 44 C-6.38085938 44.03738281 -12.76171875 44.07476562 -19.3359375 44.11328125 C-23.39195347 44.14357736 -27.44792642 44.17473601 -31.50390625 44.20898438 C-37.93373379 44.2631957 -44.36347626 44.31431017 -50.79345703 44.34643555 C-55.9807425 44.37255273 -61.16774035 44.41301437 -66.35484695 44.46318626 C-68.32821688 44.4797982 -70.30163648 44.49134765 -72.27506638 44.49761391 C-88.13655344 43.99773613 -88.13655344 43.99773613 -102.4375 49.796875 C-107.1249534 55.65619175 -109.31393071 60.35336492 -108.875 68 C-108.05734633 74.1934916 -105.81690273 78.57624136 -101.125 82.8125 C-95.66247415 86.6362681 -90.85338724 87.26778636 -84.3203125 87.01953125 C-82.81772653 86.98931545 -81.31512119 86.96005098 -79.8125 86.93164062 C-77.48476006 86.87650739 -75.1580448 86.81365003 -72.83105469 86.73266602 C-62.57015566 86.39701885 -54.03931936 87.30510308 -44.35107422 90.81518555 C-41.54397054 91.80767237 -38.92841041 92.51379046 -36 93 C-36 93.66 -36 94.32 -36 95 C-35.34 95.20625 -34.68 95.4125 -34 95.625 C-18.59511729 102.68557124 -8.43673935 117.46961737 -2.625 132.875 C-0.10822927 140.19009997 1.39836014 146.54923349 0.8125 154.25 C0.76206543 154.98871338 0.71163086 155.72742676 0.65966797 156.48852539 C0.15103655 162.8741364 -1.1374433 168.87017724 -3 175 C-3.28488281 175.97582031 -3.56976563 176.95164062 -3.86328125 177.95703125 C-4.55784816 180.31065847 -5.26923657 182.65741084 -6 185 C-6.66 185 -7.32 185 -8 185 C-8.2475 185.721875 -8.495 186.44375 -8.75 187.1875 C-10.11136803 190.25057808 -11.88983277 192.41334339 -14 195 C-14.33 195.99 -14.66 196.98 -15 198 C-16.64981368 199.52422233 -18.36966137 200.97359886 -20.125 202.375 C-21.11628906 203.16777344 -22.10757813 203.96054687 -23.12890625 204.77734375 C-26.36106369 207.27951734 -29.65534112 209.65162249 -33 212 C-33.66 212.66 -34.32 213.32 -35 214 C-37.28643213 214.91223379 -39.54140649 215.72991414 -41.875 216.5 C-43.10992187 216.9228125 -44.34484375 217.345625 -45.6171875 217.78125 C-58.18589122 221.47430426 -70.55346156 221.18963042 -83.515625 220.9765625 C-85.58354549 220.95034899 -87.65147823 220.92508583 -89.71942139 220.90072632 C-95.12485425 220.83452952 -100.53002505 220.75554147 -105.9352417 220.67376709 C-111.46584118 220.5924003 -116.99659294 220.52329937 -122.52734375 220.453125 C-133.35174489 220.31399726 -144.17590869 220.16133781 -155 220 C-155.33 219.01 -155.66 218.02 -156 217 C-155.34 217 -154.68 217 -154 217 C-153.74585327 216.10970093 -153.74585327 216.10970093 -153.48657227 215.20141602 C-151.29759657 207.702296 -148.63542969 200.42688842 -145.87304688 193.12304688 C-144.24235447 188.73034994 -142.8107636 184.47637222 -141.87890625 179.87890625 C-141.58886719 178.59886719 -141.29882812 177.31882812 -141 176 C-138.05243487 174.52621744 -135.09072778 174.90421147 -131.86328125 174.94995117 C-131.12802719 174.95623032 -130.39277313 174.96250946 -129.63523865 174.96897888 C-128.03484285 174.98284874 -126.43446399 174.99878882 -124.83410645 175.01653099 C-122.29402899 175.04316241 -119.7540387 175.06103931 -117.21386719 175.07600403 C-109.9899109 175.11874143 -102.76612422 175.16599652 -95.54248047 175.24682617 C-91.12462055 175.29561814 -86.70700464 175.32442418 -82.28890991 175.34057045 C-80.61129872 175.35041466 -78.93371268 175.36754286 -77.2562561 175.39235497 C-64.08540273 175.7325377 -64.08540273 175.7325377 -52 171 C-49.98880254 168.43600226 -49.98880254 168.43600226 -49 166 C-48.34 166 -47.68 166 -47 166 C-44.40947388 158.39032951 -43.80282711 151.31423674 -47.03125 143.78125 C-50.09287712 138.15180659 -55.20310767 135.22536624 -61 133 C-63.86635933 132.47500649 -66.64946655 132.41827681 -69.55859375 132.42578125 C-70.34718277 132.41161667 -71.13577179 132.39745209 -71.94825745 132.38285828 C-74.44481273 132.34131772 -76.94064978 132.32580299 -79.4375 132.3125 C-81.93044192 132.28321683 -84.4232135 132.24841748 -86.91603088 132.21000671 C-88.4587072 132.18793882 -90.00148669 132.17187034 -91.54429626 132.16316223 C-96.75683907 132.1118265 -101.82572017 131.63948186 -107 131 C-107 130.34 -107 129.68 -107 129 C-108.65 129 -110.3 129 -112 129 C-112 128.34 -112 127.68 -112 127 C-112.7115625 126.90332031 -113.423125 126.80664062 -114.15625 126.70703125 C-117.45351509 125.88724419 -119.66351432 124.54794777 -122.5 122.6875 C-123.4178125 122.09324219 -124.335625 121.49898438 -125.28125 120.88671875 C-127.96621958 119.02344245 -130.54404688 117.15785736 -133 115 C-133 114.34 -133 113.68 -133 113 C-134.485 112.505 -134.485 112.505 -136 112 C-137.9375 109.671875 -137.9375 109.671875 -140 106.75 C-140.680625 105.79609375 -141.36125 104.8421875 -142.0625 103.859375 C-147 96.57258065 -147 96.57258065 -147 94 C-147.66 93.67 -148.32 93.34 -149 93 C-149.81640625 90.70703125 -149.81640625 90.70703125 -150.5625 87.8125 C-150.81128906 86.87019531 -151.06007813 85.92789063 -151.31640625 84.95703125 C-154.10602193 72.88995084 -154.47012774 58.96668293 -151 47 C-150.60361328 45.60587891 -150.60361328 45.60587891 -150.19921875 44.18359375 C-149.49363384 41.77925465 -148.76181158 39.38700962 -148 37 C-147.34 37 -146.68 37 -146 37 C-145.34 34.36 -144.68 31.72 -144 29 C-143.34 29 -142.68 29 -142 29 C-142 28.34 -142 27.68 -142 27 C-141.34 27 -140.68 27 -140 27 C-139.5359375 26.071875 -139.5359375 26.071875 -139.0625 25.125 C-138.375 23.75 -137.6875 22.375 -137 21 C-136.34 21 -135.68 21 -135 21 C-135 20.34 -135 19.68 -135 19 C-117.09825608 2.70970602 -97.82087782 -0.43866634 -74.4921875 -0.546875 C-72.43286078 -0.56629808 -70.37354439 -0.5868456 -68.3142395 -0.60845947 C-64.02624451 -0.65055937 -59.73832257 -0.68332545 -55.45019531 -0.70849609 C-49.94992964 -0.74094876 -44.4499924 -0.79063742 -38.94991875 -0.84641647 C-34.7104325 -0.88863667 -30.470914 -0.9251217 -26.23135757 -0.9595108 C-24.20191719 -0.97604614 -22.17248495 -0.99361406 -20.14306259 -1.01222992 C-17.31917585 -1.03662806 -14.49533578 -1.054084 -11.67138672 -1.06933594 C-10.83297745 -1.07756882 -9.99456818 -1.0858017 -9.13075256 -1.09428406 C-5.82312953 -1.10593192 -3.16112745 -1.05370915 0 0 Z " fill="#000000" transform="translate(429,190)"/>
<path d="M0 0 C3.69451908 0.03151606 7.38861088 0.04102017 11.08325195 0.046875 C13.44718945 0.05603363 15.81112264 0.06640574 18.17504883 0.078125 C19.82037849 0.08449982 19.82037849 0.08449982 21.49894714 0.09100342 C26.42741904 0.13716316 31.13395142 0.23836775 35.97583008 1.28125 C34.77677288 4.8784216 33.62989668 5.48983019 30.60083008 7.65625 C27.11893736 10.26904469 24.98408277 12.37044213 22.97583008 16.28125 C22.31583008 16.920625 21.65583008 17.56 20.97583008 18.21875 C18.60286999 20.66586509 17.37885409 23.19459718 15.97583008 26.28125 C15.31583008 26.28125 14.65583008 26.28125 13.97583008 26.28125 C13.6999707 27.12945312 13.42411133 27.97765625 13.13989258 28.8515625 C11.96128016 32.32411854 10.67652601 35.73734995 9.35083008 39.15625 C8.68180664 40.88488281 8.68180664 40.88488281 7.99926758 42.6484375 C7.6615332 43.51726562 7.32379883 44.38609375 6.97583008 45.28125 C5.5924646 45.30312378 5.5924646 45.30312378 4.18115234 45.32543945 C0.7198149 45.38693474 -2.74078446 45.46116477 -6.20166016 45.54370117 C-7.69211749 45.57670795 -9.18269254 45.60481327 -10.67333984 45.62768555 C-21.83760602 45.80358917 -31.722581 45.97966108 -40.02416992 54.28125 C-40.35416992 55.27125 -40.68416992 56.26125 -41.02416992 57.28125 C-42.01416992 60.25125 -43.00416992 63.22125 -44.02416992 66.28125 C-44.35416992 73.87125 -44.68416992 81.46125 -45.02416992 89.28125 C-19.77916992 88.78625 -19.77916992 88.78625 5.97583008 88.28125 C7.62583008 92.57125 9.27583008 96.86125 10.97583008 101.28125 C17.27572513 113.39062911 25.49167703 123.59299354 35.97583008 132.28125 C35.64583008 133.27125 35.31583008 134.26125 34.97583008 135.28125 C34.64583008 134.62125 34.31583008 133.96125 33.97583008 133.28125 C8.23583008 133.61125 -17.50416992 133.94125 -44.02416992 134.28125 C-44.05323924 149.33984187 -44.05323924 149.33984187 -44.07299805 164.3984375 C-44.07898382 170.53711813 -44.08607707 176.67578389 -44.09960938 182.81445312 C-44.11044732 187.76164539 -44.1164487 192.70882172 -44.11904716 197.65602493 C-44.12089977 199.54673132 -44.12451725 201.43743681 -44.12989998 203.32813644 C-44.13712243 205.96926533 -44.13816035 208.61032773 -44.13769531 211.25146484 C-44.14308823 212.43289818 -44.14308823 212.43289818 -44.14859009 213.63819885 C-44.22522218 217.58866539 -44.22522218 217.58866539 -43.02416992 221.28125 C-57.87416992 221.28125 -72.72416992 221.28125 -88.02416992 221.28125 C-88.16001245 199.94840051 -88.27036947 178.61590536 -88.33504295 157.28273201 C-88.36588035 147.37566686 -88.40786552 137.46889105 -88.47680664 127.56201172 C-88.53692046 118.91944349 -88.57539243 110.27708498 -88.58870089 101.63431346 C-88.59647098 97.06491599 -88.61451663 92.49611805 -88.65855026 87.92691422 C-88.69979917 83.6109994 -88.71173568 79.29592112 -88.70281601 74.97982788 C-88.70444365 73.41026103 -88.71606409 71.84066111 -88.73940277 70.27126694 C-89.01584473 50.69319703 -82.73044317 34.25880033 -69.21166992 19.96875 C-49.55216573 1.23969562 -25.74261394 -0.2217548 0 0 Z " fill="#000000" transform="translate(259.024169921875,188.71875)"/>
<path d="M0 0 C6.6 0 13.2 0 20 0 C20 0.33 20 0.66 20 1 C13.4 1 6.8 1 0 1 C0 0.67 0 0.34 0 0 Z " fill="#070707" transform="translate(344,364)"/>
<path d="M0 0 C0.33 0.66 0.66 1.32 1 2 C0.34 1.67 -0.32 1.34 -1 1 C-0.67 0.67 -0.34 0.34 0 0 Z " fill="#030303" transform="translate(381,411)"/>
<path d="" fill="#070707" transform="translate(0,0)"/>
<path d="" fill="#080808" transform="translate(0,0)"/>
<path d="M0 0 C2 1 2 1 2 1 Z " fill="#040403" transform="translate(264,324)"/>
<path d="" fill="#040403" transform="translate(0,0)"/>
<path d="M0 0 C2 1 2 1 2 1 Z " fill="#070807" transform="translate(288,312)"/>
<path d="" fill="#030302" transform="translate(0,0)"/>
<path d="" fill="#040303" transform="translate(0,0)"/>
<path d="M0 0 C2 1 2 1 2 1 Z " fill="#030303" transform="translate(336,187)"/>
<path d="M0 0 C2 1 2 1 2 1 Z " fill="#030303" transform="translate(376,184)"/>
<path d="" fill="#030303" transform="translate(0,0)"/>
<path d="" fill="#050404" transform="translate(0,0)"/>
<path d="" fill="#040303" transform="translate(0,0)"/>
<path d="" fill="#050404" transform="translate(0,0)"/>
<path d="" fill="#030303" transform="translate(0,0)"/>
<path d="" fill="#040404" transform="translate(0,0)"/>
<path d="" fill="#080708" transform="translate(0,0)"/>
<path d="" fill="#010101" transform="translate(0,0)"/>
<path d="" fill="#020202" transform="translate(0,0)"/>
<path d="" fill="#010101" transform="translate(0,0)"/>
<path d="" fill="#010102" transform="translate(0,0)"/>
<path d="" fill="#000000" transform="translate(0,0)"/>
<path d="" fill="#040403" transform="translate(0,0)"/>
<path d="" fill="#010101" transform="translate(0,0)"/>
<path d="" fill="#040403" transform="translate(0,0)"/>
<path d="" fill="#050404" transform="translate(0,0)"/>
<path d="" fill="#050404" transform="translate(0,0)"/>
<path d="" fill="#030302" transform="translate(0,0)"/>
<path d="" fill="#040403" transform="translate(0,0)"/>
<path d="" fill="#050505" transform="translate(0,0)"/>
<path d="" fill="#020202" transform="translate(0,0)"/>
<path d="" fill="#040404" transform="translate(0,0)"/>
<path d="" fill="#050404" transform="translate(0,0)"/>
<path d="" fill="#050504" transform="translate(0,0)"/>
<path d="" fill="#020202" transform="translate(0,0)"/>
<path d="" fill="#030303" transform="translate(0,0)"/>
<path d="" fill="#070706" transform="translate(0,0)"/>
<path d="" fill="#0B0C0B" transform="translate(0,0)"/>
<path d="" fill="#030202" transform="translate(0,0)"/>
<path d="" fill="#0B0B0B" transform="translate(0,0)"/>
<path d="" fill="#030202" transform="translate(0,0)"/>
<path d="" fill="#030303" transform="translate(0,0)"/>
<path d="" fill="#020202" transform="translate(0,0)"/>
<path d="" fill="#030202" transform="translate(0,0)"/>
<path d="" fill="#030303" transform="translate(0,0)"/>
<path d="" fill="#040403" transform="translate(0,0)"/>
<path d="" fill="#030303" transform="translate(0,0)"/>
<path d="" fill="#000000" transform="translate(0,0)"/>
<path d="" fill="#040404" transform="translate(0,0)"/>
<path d="" fill="#040404" transform="translate(0,0)"/>
<path d="" fill="#020201" transform="translate(0,0)"/>
<path d="" fill="#010101" transform="translate(0,0)"/>
<path d="" fill="#010101" transform="translate(0,0)"/>
<path d="" fill="#080807" transform="translate(0,0)"/>
<path d="" fill="#010101" transform="translate(0,0)"/>
<path d="" fill="#020202" transform="translate(0,0)"/>
<path d="" fill="#030202" transform="translate(0,0)"/>
<path d="" fill="#030302" transform="translate(0,0)"/>
<path d="" fill="#050404" transform="translate(0,0)"/>
<path d="" fill="#010101" transform="translate(0,0)"/>
<path d="" fill="#020101" transform="translate(0,0)"/>
<path d="" fill="#030303" transform="translate(0,0)"/>
<path d="" fill="#000000" transform="translate(0,0)"/>
<path d="" fill="#030303" transform="translate(0,0)"/>
<path d="" fill="#030303" transform="translate(0,0)"/>
<path d="" fill="#030303" transform="translate(0,0)"/>
<path d="" fill="#010101" transform="translate(0,0)"/>
<path d="" fill="#060606" transform="translate(0,0)"/>
<path d="" fill="#040303" transform="translate(0,0)"/>
<path d="" fill="#030303" transform="translate(0,0)"/>
<path d="" fill="#020201" transform="translate(0,0)"/>
<path d="" fill="#0C0B0B" transform="translate(0,0)"/>
<path d="" fill="#030303" transform="translate(0,0)"/>
<path d="" fill="#030303" transform="translate(0,0)"/>
<path d="" fill="#020202" transform="translate(0,0)"/>
<path d="" fill="#010101" transform="translate(0,0)"/>
<path d="" fill="#0A0A0A" transform="translate(0,0)"/>
<path d="" fill="#030303" transform="translate(0,0)"/>
<path d="" fill="#020202" transform="translate(0,0)"/>
<path d="" fill="#030302" transform="translate(0,0)"/>
<path d="" fill="#030303" transform="translate(0,0)"/>
<path d="" fill="#030303" transform="translate(0,0)"/>
<path d="" fill="#040404" transform="translate(0,0)"/>
<path d="" fill="#030303" transform="translate(0,0)"/>
<path d="" fill="#030202" transform="translate(0,0)"/>
<path d="" fill="#010101" transform="translate(0,0)"/>
<path d="" fill="#030303" transform="translate(0,0)"/>
<path d="" fill="#030303" transform="translate(0,0)"/>
<path d="" fill="#030303" transform="translate(0,0)"/>
<path d="" fill="#030303" transform="translate(0,0)"/>
<path d="" fill="#030303" transform="translate(0,0)"/>
<path d="" fill="#030303" transform="translate(0,0)"/>
<path d="" fill="#020202" transform="translate(0,0)"/>
<path d="" fill="#040303" transform="translate(0,0)"/>
<path d="" fill="#020102" transform="translate(0,0)"/>
<path d="" fill="#000000" transform="translate(0,0)"/>
<path d="" fill="#030303" transform="translate(0,0)"/>
<path d="" fill="#010100" transform="translate(0,0)"/>
<path d="" fill="#020101" transform="translate(0,0)"/>
<path d="" fill="#030303" transform="translate(0,0)"/>
<path d="" fill="#030302" transform="translate(0,0)"/>
<path d="" fill="#040303" transform="translate(0,0)"/>
<path d="" fill="#030303" transform="translate(0,0)"/>
<path d="" fill="#020202" transform="translate(0,0)"/>
<path d="" fill="#010101" transform="translate(0,0)"/>
<path d="" fill="#030303" transform="translate(0,0)"/>
<path d="" fill="#030303" transform="translate(0,0)"/>
<path d="" fill="#010101" transform="translate(0,0)"/>
<path d="" fill="#010101" transform="translate(0,0)"/>
<path d="" fill="#030202" transform="translate(0,0)"/>
<path d="" fill="#040403" transform="translate(0,0)"/>
<path d="" fill="#020202" transform="translate(0,0)"/>
<path d="" fill="#000000" transform="translate(0,0)"/>
<path d="" fill="#050405" transform="translate(0,0)"/>
<path d="" fill="#030303" transform="translate(0,0)"/>
<path d="" fill="#070707" transform="translate(0,0)"/>
<path d="" fill="#030303" transform="translate(0,0)"/>
<path d="" fill="#030303" transform="translate(0,0)"/>
<path d="" fill="#010101" transform="translate(0,0)"/>
<path d="" fill="#080808" transform="translate(0,0)"/>
<path d="" fill="#030303" transform="translate(0,0)"/>
<path d="" fill="#070606" transform="translate(0,0)"/>
<path d="" fill="#030303" transform="translate(0,0)"/>
<path d="" fill="#030303" transform="translate(0,0)"/>
<path d="" fill="#030303" transform="translate(0,0)"/>
<path d="" fill="#030303" transform="translate(0,0)"/>
<path d="" fill="#030303" transform="translate(0,0)"/>
<path d="" fill="#030303" transform="translate(0,0)"/>
<path d="" fill="#040403" transform="translate(0,0)"/>
<path d="" fill="#030303" transform="translate(0,0)"/>
<path d="" fill="#030303" transform="translate(0,0)"/>
</svg>
